<?xml version="1.0" encoding="utf-8" ?><svg xmlns="http://www.w3.org/2000/svg" xmlns:xlink="http://www.w3.org/1999/xlink" width="1976" height="473" viewBox="0 0 1976 473"><path transform="scale(2.71802 2.71839)" d="M0 0L727 0L727 174L0 174L0 0Z"/><path fill="#FEFEFE" transform="scale(2.71802 2.71839)" d="M651.168 54.0305C659.798 46.5062 669.274 43.0559 680.806 43.7536C691.136 44.3786 700.628 48.8582 707.484 56.6461C711.557 61.2536 714.451 66.7809 715.919 72.7535C718.223 82.1369 717.176 93.0395 717.224 102.684C717.262 110.162 717.623 117.815 717.146 125.27C709.496 126.072 700.015 125.721 692.288 125.316C691.241 115.337 691.844 103.88 691.856 93.7506C691.861 88.9824 692.283 83.7679 691.162 79.1132C690.584 76.7089 689.247 74.455 687.515 72.7008C684.881 70.0313 681.471 68.6432 677.73 68.6523C674.095 68.6612 670.583 70.0004 668.014 72.6C661.823 78.865 663.429 89.3705 663.506 97.4724L663.443 125.296C655.427 126.097 646.683 125.726 638.629 125.36C638.084 121.128 638.301 116.69 638.294 112.424L638.276 92.0792C638.273 88.0751 638.563 83.8172 637.753 79.8828C637.277 77.5729 636.314 75.4797 634.799 73.6664C632.345 70.727 628.813 68.8971 624.998 68.5879C621.241 68.3041 617.528 69.5333 614.682 72.0021C612.623 73.7859 611.218 76.0054 610.555 78.6485C609.398 83.2626 609.886 88.5543 609.897 93.2902C609.921 103.892 610.537 114.806 609.73 125.358C601.651 125.616 593.312 125.91 585.248 125.372C585.233 125.235 585.219 125.098 585.208 124.962C584.675 118.801 585.024 112.404 584.991 106.212C584.933 95.5578 583.779 82.88 586.135 72.5622C587.467 66.7263 590.012 61.277 593.91 56.71C600.986 48.4197 611.067 44.6789 621.689 43.8255C633.413 43.0417 642.032 47.2127 651.168 54.0305Z"/><path fill="#FEFEFE" transform="scale(2.71802 2.71839)" d="M180.587 44.4475C188.901 44.0835 197.532 44.1048 205.84 44.5781C206.198 54.236 205.973 63.9826 205.95 73.6502C205.937 78.9166 205.424 84.6818 206.505 89.8512C207.111 92.7485 208.379 95.5398 210.458 97.6783C213.238 100.538 217.047 101.748 220.966 101.788C224.548 101.824 227.914 100.793 230.502 98.2369C232.804 95.962 234.178 92.8607 234.82 89.7196C235.961 84.1462 235.306 77.944 235.294 72.2634L235.325 44.4574C243.39 44.0961 252.172 43.907 260.182 44.6477C260.204 45.5041 260.22 46.3606 260.229 47.2172L260.305 96.3547C260.321 107.062 261.554 124.471 258.955 134.497C257.092 141.683 253.212 147.44 248.07 152.686C235.073 164.477 221.879 163.744 205.506 163.83C197.725 163.871 189.889 164.041 182.114 163.679C181.738 155.535 181.622 147.161 181.948 139.016C190.434 138.541 199.161 139.013 207.673 139.021C212.298 139.026 217.139 139.221 221.675 138.207C224.424 137.593 227.03 136.439 229.193 134.609C233.968 130.568 234.658 125.26 235.133 119.429C229.886 123.892 224.794 125.888 217.856 125.864C208.01 125.829 198.245 122.117 191.278 115.074C186.634 110.38 183.353 104.231 181.783 97.831C179.807 89.7713 180.509 80.7661 180.514 72.4949L180.587 44.4475Z"/><path fill="#FEFEFE" transform="scale(2.71802 2.71839)" d="M57.3371 13.6339C63.0918 12.5368 72.091 14.0341 77.6975 15.6569C93.4976 20.2299 104.608 30.2873 112.462 44.5121C107.6 48.1332 95.5233 54.7862 89.9121 56.9819C88.1416 54.7149 86.7531 52.159 84.9139 49.9206C79.9593 43.8908 72.5423 40.2821 64.8284 39.5523C56.6816 38.769 48.5589 41.269 42.2612 46.498C36.1835 51.5366 32.2785 59.2954 31.5654 67.1296C30.7976 75.5652 32.7218 83.7337 38.222 90.3025C43.3558 96.5247 50.7656 100.433 58.7984 101.154C69.0474 102.036 78.0033 98.4255 84.5215 90.4277C85.9245 88.7061 86.7773 86.0225 88.4103 84.6527L89.2266 84.8422C96.751 88.2492 104.426 92.3122 111.413 96.7218C109.871 100.56 107.868 103.801 105.237 106.998C96.0594 118.242 82.7219 125.29 68.264 126.537C53.244 127.983 37.3301 124.091 25.5813 114.364C14.044 104.813 6.91873 90.4964 5.55349 75.6315C4.15857 60.4433 8.39186 45.1704 18.2032 33.3941C28.1605 21.4425 42.0339 15.0396 57.3371 13.6339Z"/><path fill="#FEFEFE" transform="scale(2.71802 2.71839)" d="M306.833 43.8078C308.696 43.5327 310.741 43.5139 312.622 43.5443C323.89 43.7265 334.375 47.8894 342.243 56.0487C350.06 64.1551 353.853 74.2674 353.645 85.4859C353.441 96.4952 349.748 107.26 341.694 115.006C331.728 124.589 318.894 126.488 305.578 126.214C304.919 118.25 305.259 109.903 305.365 101.907C309.361 101.975 313.432 102.094 317.251 100.729C321.618 99.177 325.179 95.9354 327.134 91.7322C329.027 87.7183 329.236 83.1134 327.713 78.9448C326.207 74.8382 323.124 71.5033 319.149 69.6807C314.365 67.5273 309.577 67.9545 304.819 69.7862C303.552 70.4546 302.235 71.3361 301.156 72.2809C298.727 74.4072 296.882 77.1438 296.165 80.3162C294.625 87.1359 295.498 96.0944 295.518 103.111L295.594 140.966C295.618 148.432 295.966 156.048 295.448 163.493C287.267 164.144 278.424 163.934 270.222 163.495C269.984 157.905 270.158 152.243 270.153 146.643L270.129 115.122C270.122 104.065 269.146 86.4565 270.997 76.3413C272.139 70.0961 274.623 64.2247 278.544 59.2177C285.546 50.2767 295.681 45.1771 306.833 43.8078Z"/><path fill="#E7743D" transform="scale(2.71802 2.71839)" d="M457.203 43.4966C458.335 44.7799 457.595 64.6945 457.575 67.6962C452.749 69.6659 448.515 72.8511 446.285 77.6942C444.377 81.841 444.25 86.1483 445.864 90.4467C447.554 94.9476 451.175 98.847 455.561 100.805C459.969 102.741 464.969 102.836 469.447 101.067C473.759 99.4612 477.238 96.1778 479.091 91.9647C480.996 87.7154 481.098 82.8752 479.373 78.5496C484.645 72.1755 490.726 66.5197 496.543 60.6528C498.949 63.8036 500.744 67.0802 502.053 70.8311C505.842 81.7076 505.154 93.6448 500.139 104.013C498.785 106.557 497.18 108.959 495.349 111.184C488.4 119.694 478.38 125.126 467.457 126.303C455.923 127.434 443.677 124.325 434.656 116.882C426.401 110.071 421.272 99.8481 420.275 89.233C419.212 77.9107 422.27 66.9084 429.565 58.1248C436.613 49.6397 446.237 44.5247 457.203 43.4966Z"/><path fill="#FEFEFE" transform="scale(2.71802 2.71839)" d="M362.279 15.0532C370.355 14.9079 378.433 14.995 386.504 15.3143C386.802 24.9799 386.623 34.7136 386.69 44.387C394.997 44.3123 403.304 44.336 411.61 44.4581C411.884 52.4008 411.914 60.5951 411.551 68.5352C403.368 68.8536 395.124 68.6922 386.932 68.7048C386.64 73.5722 386.57 78.5121 386.633 83.3863C386.697 88.3343 387.902 93.2059 391.584 96.7596C397.12 102.103 404.274 101.581 411.344 101.449C412.467 102.949 411.858 122.339 411.718 125.532C408.134 125.891 404.383 125.866 400.789 125.693C389.719 125.16 379.64 121.299 372.094 112.972C367.715 108.101 364.707 102.156 363.374 95.7421C361.35 86.3213 362.382 70.6785 362.324 60.5335C362.238 45.4616 361.53 30.099 362.279 15.0532Z"/><path fill="#FEFEFE" transform="scale(2.71802 2.71839)" d="M514.366 44.3353C522.633 44.1152 531.005 44.2084 539.274 44.4293C540.12 57.8913 539.505 71.7943 539.503 85.296C539.502 97.7049 540.259 110.774 538.964 123.112C538.561 126.893 537.675 130.606 536.328 134.161C531.96 145.782 523.341 154.727 512.1 159.826C505.356 162.8 497.627 163.693 490.322 163.5C489.944 155.441 489.838 146.987 490.273 138.931C496.889 138.179 503.043 136.764 507.963 131.961C511.113 128.887 512.87 125.197 513.717 120.905C515.216 113.303 514.359 103.001 514.352 95.136C514.336 78.2058 514.189 61.2641 514.366 44.3353Z"/><path fill="#FEFEFE" transform="scale(2.71802 2.71839)" d="M157.14 44.1567C161.693 43.8538 166.165 44.1594 170.698 44.5527C170.785 52.6515 171.164 61.2932 170.395 69.3359C163.851 69.3199 156.593 68.0375 151.338 72.8899C149.469 74.6107 148.168 76.8608 147.61 79.34C146.547 83.8652 147.046 88.9313 147.028 93.5532C146.988 104.118 147.361 114.783 146.953 125.332C143.137 125.63 139.337 125.576 135.514 125.539C131.058 125.539 126.592 125.608 122.144 125.298C121.59 118.613 121.841 111.699 121.826 104.983C121.801 94.5173 120.78 82.7325 123.195 72.5527C124.539 67.0374 127.085 61.8875 130.651 57.4721C137.389 49.169 146.663 45.2293 157.14 44.1567Z"/><path fill="#FEFEFE" transform="scale(2.71802 2.71839)" d="M549.776 44.4004C558.18 44.0048 566.847 44.0937 575.262 44.332C575.626 57.0161 575.322 69.7964 575.323 82.4898C575.324 96.7606 575.591 111.093 575.205 125.356C566.946 125.829 558.112 126 549.88 125.293C548.973 115.557 549.542 105.376 549.559 95.591L549.776 44.4004Z"/><path fill="#35B16C" transform="scale(2.71802 2.71839)" d="M516.274 7.95072C522.49 7.32951 533.376 7.35217 539.546 8.08463C540.142 11.589 540.72 30.2433 539.536 32.8189C539.173 33.6075 538.839 33.6079 538.065 33.8975C534.276 34.2192 518.044 34.7398 514.985 33.0395C513.58 29.1017 514.116 13.8022 514.46 9.03266C514.957 8.23576 515.414 8.23302 516.274 7.95072Z"/><path fill="#1C97C1" transform="scale(2.71802 2.71839)" d="M552.131 7.94987C559.289 7.5418 567.524 7.38675 574.596 8.3664C575.519 12.4704 575.598 28.6263 574.813 32.7747C574.052 33.7196 573.582 33.7088 572.442 34.015C565.074 34.3479 557.227 34.325 549.881 33.5743C549.273 28.7681 549.006 13.7348 549.915 9.15983C550.642 8.28007 551.066 8.2614 552.131 7.94987Z"/><path fill="#E7743D" transform="scale(2.71802 2.71839)" d="M467.823 43.294C476.184 44.3684 484.155 47.8975 490.208 53.8233C487.296 56.4787 484.404 59.1549 481.531 61.8518L473.026 70.1298C471.347 69.169 469.496 68.4285 467.738 67.6215C467.36 59.5876 467.771 51.3474 467.823 43.294Z"/></svg>